<svg width="128" height="128" viewBox="0 0 128 128" fill="none" xmlns="http://www.w3.org/2000/svg">
  <rect width="128" height="128" rx="28" fill="url(#bg)"/>
  <mask id="m" style="mask-type:alpha" maskUnits="userSpaceOnUse" x="0" y="0" width="128" height="128">
    <rect width="128" height="128" rx="28" fill="#fff"/>
  </mask>
  <g mask="url(#m)">
    <rect x="108" y="0" width="20" height="43" fill="#229EFF"/>
    <rect x="108" y="43" width="20" height="42" fill="#9E4EE4"/>
    <rect x="108" y="85" width="20" height="43" fill="#3BBE78"/>
  </g>
  <!-- Simplified F -->
  <path d="M20 50h25v6H26v18h17v6H26v20h-6V50z" fill="white"/>
  <!-- Simplified P -->
  <path d="M56 50h14c4.5 0 8.2 1.3 10.8 3.8 2.6 2.5 4 6 4 10.2 0 4.2-1.4 7.6-4 10.2-2.6 2.5-6.3 3.8-10.8 3.8H62v22h-6V50zm14 22c3 0 5.3-.9 6.9-2.6 1.6-1.8 2.5-4.2 2.5-7.4 0-3.2-.9-5.6-2.5-7.3-1.6-1.8-3.9-2.7-6.9-2.7H62v20h8z" fill="white"/>
  <defs>
    <linearGradient id="bg" x1="64" y1="0" x2="64" y2="128" gradientUnits="userSpaceOnUse">
      <stop stop-color="#242626"/>
      <stop offset="1" stop-color="#000000"/>
    </linearGradient>
  </defs>
</svg>
